<svg width="1920" height="960" viewBox="0 0 1920 960" fill="none" xmlns="http://www.w3.org/2000/svg">
<path d="M657.062 356.021C655.484 354.442 653.61 353.19 651.547 352.335C649.485 351.481 647.274 351.041 645.042 351.041C642.809 351.041 640.599 351.481 638.536 352.335C636.473 353.19 634.599 354.442 633.021 356.021C631.442 357.599 630.19 359.473 629.336 361.536C628.481 363.598 628.042 365.809 628.042 368.041C628.042 370.274 628.481 372.484 629.336 374.547C630.19 376.61 631.442 378.484 633.021 380.062L645.042 368.041L657.062 356.021Z" fill="#42B581"/>
<path d="M280.062 297.021C278.484 295.442 276.61 294.19 274.547 293.336C272.485 292.481 270.274 292.042 268.042 292.042C265.809 292.042 263.599 292.481 261.536 293.336C259.473 294.19 257.599 295.442 256.021 297.021C254.442 298.599 253.19 300.473 252.336 302.536C251.481 304.599 251.042 306.809 251.042 309.042C251.042 311.274 251.481 313.485 252.336 315.547C253.19 317.61 254.442 319.484 256.021 321.062L268.042 309.042L280.062 297.021Z" fill="#42B581"/>
<path d="M230.062 703.021C228.484 701.442 226.61 700.19 224.547 699.336C222.485 698.481 220.274 698.042 218.042 698.042C215.809 698.042 213.599 698.481 211.536 699.336C209.473 700.19 207.599 701.442 206.021 703.021C204.442 704.599 203.19 706.473 202.336 708.536C201.481 710.599 201.042 712.809 201.042 715.042C201.042 717.274 201.481 719.485 202.336 721.547C203.19 723.61 204.442 725.484 206.021 727.062L218.042 715.042L230.062 703.021Z" fill="#42B581"/>
<path d="M502 12.0208C503.579 10.4422 505.453 9.19001 507.515 8.33567C509.578 7.48134 511.788 7.04163 514.021 7.04163C516.253 7.04163 518.464 7.48135 520.526 8.33567C522.589 9.19 524.463 10.4422 526.042 12.0208C527.62 13.5994 528.872 15.4735 529.727 17.536C530.581 19.5985 531.021 21.8092 531.021 24.0416C531.021 26.2741 530.581 28.4847 529.727 30.5472C528.872 32.6098 527.62 34.4838 526.042 36.0624L514.021 24.0416L502 12.0208Z" fill="#42B581"/>
<path d="M14.8127 233.937C14.1643 233.289 13.3945 232.775 12.5473 232.424C11.7001 232.073 10.7921 231.892 9.87511 231.892C8.95813 231.892 8.05011 232.073 7.20293 232.424C6.35574 232.775 5.58597 233.289 4.93756 233.937C4.28915 234.586 3.7748 235.356 3.42388 236.203C3.07297 237.05 2.89235 237.958 2.89235 238.875C2.89235 239.792 3.07297 240.7 3.42389 241.547C3.7748 242.394 4.28915 243.164 4.93756 243.812L9.87511 238.875L14.8127 233.937Z" fill="#42B581"/>
<path d="M1375.06 396.021C1373.48 394.442 1371.61 393.19 1369.55 392.335C1367.48 391.481 1365.27 391.041 1363.04 391.041C1360.81 391.041 1358.6 391.481 1356.54 392.335C1354.47 393.19 1352.6 394.442 1351.02 396.021C1349.44 397.599 1348.19 399.473 1347.34 401.536C1346.48 403.598 1346.04 405.809 1346.04 408.041C1346.04 410.274 1346.48 412.484 1347.34 414.547C1348.19 416.61 1349.44 418.484 1351.02 420.062L1363.04 408.041L1375.06 396.021Z" fill="#42B581"/>
<path d="M1668.06 258.021C1666.48 256.442 1664.61 255.19 1662.55 254.336C1660.48 253.481 1658.27 253.042 1656.04 253.042C1653.81 253.042 1651.6 253.481 1649.54 254.336C1647.47 255.19 1645.6 256.442 1644.02 258.021C1642.44 259.599 1641.19 261.473 1640.34 263.536C1639.48 265.599 1639.04 267.809 1639.04 270.042C1639.04 272.274 1639.48 274.485 1640.34 276.547C1641.19 278.61 1642.44 280.484 1644.02 282.062L1656.04 270.042L1668.06 258.021Z" fill="#42B581"/>
<path d="M1920 607.292V960H1343C1343 587.697 1692.81 477.325 1920 607.292Z" fill="#42B581"/>
</svg>
