<svg width="36" height="36" viewBox="0 0 36 36" fill="none" xmlns="http://www.w3.org/2000/svg">
<rect width="36" height="36" rx="8" fill="white"/>
<rect x="0.5" y="0.5" width="35" height="35" rx="7.5" stroke="black" stroke-opacity="0.6"/>
<path d="M22.4461 10.8996C22.9101 10.4357 23.6622 10.4357 24.1261 10.8996L26.1 12.8735C26.5639 13.3374 26.5639 14.0896 26.1 14.5535L25.5331 15.1204C25.3011 15.3524 24.925 15.3524 24.6931 15.1204L21.8792 12.3066C21.6472 12.0746 21.6472 11.6985 21.8792 11.4666L22.4461 10.8996Z" fill="#42B581"/>
<path d="M12.5982 21.1713C12.6121 21.0744 12.7306 21.0349 12.7998 21.1041L16.1177 24.422C16.1869 24.4912 16.1474 24.6097 16.0505 24.6236L13.5909 24.9749C12.8069 25.0869 12.1349 24.4149 12.2469 23.6309L12.5982 21.1713Z" fill="#42B581"/>
<path fill-rule="evenodd" clip-rule="evenodd" d="M21.7758 13.2504C21.3119 12.7865 20.5597 12.7865 20.0958 13.2504L13.1032 20.2431C13.0568 20.2895 13.0568 20.3647 13.1032 20.4111L14.5043 21.8123C14.5257 21.7753 14.5522 21.7405 14.5838 21.7089L22.409 13.8837L21.7758 13.2504ZM23.1161 14.5908L15.2909 22.416C15.2593 22.4476 15.2245 22.4741 15.1875 22.4955L16.589 23.897C16.6354 23.9434 16.7106 23.9434 16.757 23.897L23.7497 16.9043C24.2136 16.4404 24.2136 15.6882 23.7497 15.2243L23.1161 14.5908Z" fill="#42B581"/>
</svg>
