<svg width="36" height="36" viewBox="0 0 36 36" fill="none" xmlns="http://www.w3.org/2000/svg">
<rect width="36" height="36" rx="8" fill="white"/>
<path fill-rule="evenodd" clip-rule="evenodd" d="M11.2105 19.4165C12.2777 20.7969 14.7077 23.25 18.5005 23.25C22.2933 23.25 24.7232 20.7969 25.7904 19.4165C26.213 18.8698 26.213 18.1302 25.7904 17.5835C24.7232 16.2031 22.2933 13.75 18.5005 13.75C14.7077 13.75 12.2777 16.2031 11.2105 17.5835C10.7879 18.1302 10.7879 18.8698 11.2105 19.4165ZM16.8755 18.5C16.8755 17.6025 17.603 16.875 18.5005 16.875C19.3979 16.875 20.1255 17.6025 20.1255 18.5C20.1255 19.3975 19.3979 20.125 18.5005 20.125C17.603 20.125 16.8755 19.3975 16.8755 18.5ZM18.5005 15.375C16.7746 15.375 15.3755 16.7741 15.3755 18.5C15.3755 20.2259 16.7746 21.625 18.5005 21.625C20.2263 21.625 21.6255 20.2259 21.6255 18.5C21.6255 16.7741 20.2263 15.375 18.5005 15.375Z" fill="#42B581"/>
</svg>
