<svg width="127" height="24" viewBox="0 0 127 24" fill="none" xmlns="http://www.w3.org/2000/svg">
<path d="M12.0078 17.4189C12.0078 17.0381 11.9492 16.6963 11.832 16.3936C11.7246 16.0811 11.5195 15.7979 11.2168 15.5439C10.9141 15.2803 10.4893 15.0215 9.94238 14.7676C9.39551 14.5137 8.6875 14.25 7.81836 13.9766C6.85156 13.6641 5.93359 13.3125 5.06445 12.9219C4.20508 12.5312 3.44336 12.0771 2.7793 11.5596C2.125 11.0322 1.60742 10.4219 1.22656 9.72852C0.855469 9.03516 0.669922 8.22949 0.669922 7.31152C0.669922 6.42285 0.865234 5.61719 1.25586 4.89453C1.64648 4.16211 2.19336 3.53711 2.89648 3.01953C3.59961 2.49219 4.42969 2.08691 5.38672 1.80371C6.35352 1.52051 7.41309 1.37891 8.56543 1.37891C10.1377 1.37891 11.5098 1.66211 12.6816 2.22852C13.8535 2.79492 14.7617 3.57129 15.4062 4.55762C16.0605 5.54395 16.3877 6.67187 16.3877 7.94141H12.0225C12.0225 7.31641 11.8906 6.76953 11.627 6.30078C11.373 5.82227 10.9824 5.44629 10.4551 5.17285C9.9375 4.89941 9.2832 4.7627 8.49219 4.7627C7.73047 4.7627 7.0957 4.87988 6.58789 5.11426C6.08008 5.33887 5.69922 5.64648 5.44531 6.03711C5.19141 6.41797 5.06445 6.84766 5.06445 7.32617C5.06445 7.6875 5.15234 8.01465 5.32812 8.30762C5.51367 8.60059 5.78711 8.87402 6.14844 9.12793C6.50977 9.38184 6.9541 9.62109 7.48145 9.8457C8.00879 10.0703 8.61914 10.29 9.3125 10.5049C10.4746 10.8564 11.4951 11.252 12.374 11.6914C13.2627 12.1309 14.0049 12.624 14.6006 13.1709C15.1963 13.7178 15.6455 14.3379 15.9482 15.0312C16.251 15.7246 16.4023 16.5107 16.4023 17.3896C16.4023 18.3174 16.2217 19.1475 15.8604 19.8799C15.499 20.6123 14.9766 21.2324 14.293 21.7402C13.6094 22.248 12.7939 22.6338 11.8467 22.8975C10.8994 23.1611 9.83984 23.293 8.66797 23.293C7.61328 23.293 6.57324 23.1562 5.54785 22.8828C4.52246 22.5996 3.58984 22.1748 2.75 21.6084C1.91992 21.042 1.25586 20.3193 0.757812 19.4404C0.259766 18.5615 0.0107422 17.5215 0.0107422 16.3203H4.41992C4.41992 16.9844 4.52246 17.5459 4.72754 18.0049C4.93262 18.4639 5.2207 18.835 5.5918 19.1182C5.97266 19.4014 6.42188 19.6064 6.93945 19.7334C7.4668 19.8604 8.04297 19.9238 8.66797 19.9238C9.42969 19.9238 10.0547 19.8164 10.543 19.6016C11.041 19.3867 11.4072 19.0889 11.6416 18.708C11.8857 18.3271 12.0078 17.8975 12.0078 17.4189ZM28.502 19.2061V7.15039H32.7207V23H28.751L28.502 19.2061ZM28.9707 15.9541L30.2158 15.9248C30.2158 16.9795 30.0938 17.9609 29.8496 18.8691C29.6055 19.7676 29.2393 20.5488 28.751 21.2129C28.2627 21.8672 27.6475 22.3799 26.9053 22.751C26.1631 23.1123 25.2891 23.293 24.2832 23.293C23.5117 23.293 22.7988 23.1855 22.1445 22.9707C21.5 22.7461 20.9434 22.3994 20.4746 21.9307C20.0156 21.4521 19.6543 20.8418 19.3906 20.0996C19.1367 19.3477 19.0098 18.4443 19.0098 17.3896V7.15039H23.2285V17.4189C23.2285 17.8877 23.2822 18.2832 23.3896 18.6055C23.5068 18.9277 23.668 19.1914 23.873 19.3965C24.0781 19.6016 24.3174 19.748 24.5908 19.8359C24.874 19.9238 25.1865 19.9678 25.5283 19.9678C26.3975 19.9678 27.0811 19.792 27.5791 19.4404C28.0869 19.0889 28.4434 18.6104 28.6484 18.0049C28.8633 17.3896 28.9707 16.7061 28.9707 15.9541ZM44.498 19.4258V12.3652C44.498 11.8574 44.415 11.4229 44.249 11.0615C44.083 10.6904 43.8242 10.4023 43.4727 10.1973C43.1309 9.99219 42.6865 9.88965 42.1396 9.88965C41.6709 9.88965 41.2656 9.97266 40.9238 10.1387C40.582 10.2949 40.3184 10.5244 40.1328 10.8271C39.9473 11.1201 39.8545 11.4668 39.8545 11.8672H35.6357C35.6357 11.1934 35.792 10.5537 36.1045 9.94824C36.417 9.34277 36.8711 8.81055 37.4668 8.35156C38.0625 7.88281 38.7705 7.5166 39.5908 7.25293C40.4209 6.98926 41.3486 6.85742 42.374 6.85742C43.6045 6.85742 44.6982 7.0625 45.6553 7.47266C46.6123 7.88281 47.3643 8.49805 47.9111 9.31836C48.4678 10.1387 48.7461 11.1641 48.7461 12.3945V19.1768C48.7461 20.0459 48.7998 20.7588 48.9072 21.3154C49.0146 21.8623 49.1709 22.3408 49.376 22.751V23H45.1133C44.9082 22.5703 44.752 22.0332 44.6445 21.3887C44.5469 20.7344 44.498 20.0801 44.498 19.4258ZM45.0547 13.3467L45.084 15.7344H42.7256C42.1689 15.7344 41.6855 15.7979 41.2754 15.9248C40.8652 16.0518 40.5283 16.2324 40.2646 16.4668C40.001 16.6914 39.8057 16.9551 39.6787 17.2578C39.5615 17.5605 39.5029 17.8926 39.5029 18.2539C39.5029 18.6152 39.5859 18.9424 39.752 19.2354C39.918 19.5186 40.1572 19.7432 40.4697 19.9092C40.7822 20.0654 41.1484 20.1436 41.5684 20.1436C42.2031 20.1436 42.7549 20.0166 43.2236 19.7627C43.6924 19.5088 44.0537 19.1963 44.3076 18.8252C44.5713 18.4541 44.708 18.1025 44.7178 17.7705L45.8311 19.5576C45.6748 19.958 45.46 20.373 45.1865 20.8027C44.9229 21.2324 44.5859 21.6377 44.1758 22.0186C43.7656 22.3896 43.2725 22.6973 42.6963 22.9414C42.1201 23.1758 41.4365 23.293 40.6455 23.293C39.6396 23.293 38.7266 23.0928 37.9062 22.6924C37.0957 22.2822 36.4512 21.7207 35.9727 21.0078C35.5039 20.2852 35.2695 19.4648 35.2695 18.5469C35.2695 17.7168 35.4258 16.9795 35.7383 16.335C36.0508 15.6904 36.5098 15.1484 37.1152 14.709C37.7305 14.2598 38.4971 13.9229 39.415 13.6982C40.333 13.4639 41.3975 13.3467 42.6084 13.3467H45.0547ZM66.2803 23H61.6367L61.666 19.5723H66.2803C67.4326 19.5723 68.4043 19.3135 69.1953 18.7959C69.9863 18.2686 70.582 17.502 70.9824 16.4961C71.3926 15.4902 71.5977 14.2744 71.5977 12.8486V11.8086C71.5977 10.7148 71.4805 9.75293 71.2461 8.92285C71.0215 8.09277 70.6846 7.39453 70.2354 6.82812C69.7861 6.26172 69.2344 5.83691 68.5801 5.55371C67.9258 5.26074 67.1738 5.11426 66.3242 5.11426H61.5488V1.67188H66.3242C67.75 1.67188 69.0537 1.91602 70.2354 2.4043C71.4268 2.88281 72.457 3.57129 73.3262 4.46973C74.1953 5.36816 74.8643 6.44238 75.333 7.69238C75.8115 8.93262 76.0508 10.3145 76.0508 11.8379V12.8486C76.0508 14.3623 75.8115 15.7441 75.333 16.9941C74.8643 18.2441 74.1953 19.3184 73.3262 20.2168C72.4668 21.1055 71.4365 21.7939 70.2354 22.2822C69.0439 22.7607 67.7256 23 66.2803 23ZM64.127 1.67188V23H59.7324V1.67188H64.127ZM83.4336 7.15039V23H79.2002V7.15039H83.4336ZM78.9365 3.01953C78.9365 2.4043 79.1514 1.89648 79.5811 1.49609C80.0107 1.0957 80.5869 0.895508 81.3096 0.895508C82.0225 0.895508 82.5938 1.0957 83.0234 1.49609C83.4629 1.89648 83.6826 2.4043 83.6826 3.01953C83.6826 3.63477 83.4629 4.14258 83.0234 4.54297C82.5938 4.94336 82.0225 5.14355 81.3096 5.14355C80.5869 5.14355 80.0107 4.94336 79.5811 4.54297C79.1514 4.14258 78.9365 3.63477 78.9365 3.01953ZM94.2148 23.293C92.9844 23.293 91.8809 23.0977 90.9043 22.707C89.9277 22.3066 89.0977 21.7549 88.4141 21.0518C87.7402 20.3486 87.2227 19.5332 86.8613 18.6055C86.5 17.668 86.3193 16.6719 86.3193 15.6172V15.0312C86.3193 13.8301 86.4902 12.7314 86.832 11.7354C87.1738 10.7393 87.6621 9.875 88.2969 9.14258C88.9414 8.41016 89.7227 7.84863 90.6406 7.45801C91.5586 7.05762 92.5938 6.85742 93.7461 6.85742C94.8691 6.85742 95.8652 7.04297 96.7344 7.41406C97.6035 7.78516 98.3311 8.3125 98.917 8.99609C99.5127 9.67969 99.9619 10.5 100.265 11.457C100.567 12.4043 100.719 13.459 100.719 14.6211V16.3789H88.1211V13.5664H96.5732V13.2441C96.5732 12.6582 96.4658 12.1357 96.251 11.6768C96.0459 11.208 95.7334 10.8369 95.3135 10.5635C94.8936 10.29 94.3564 10.1533 93.7021 10.1533C93.1455 10.1533 92.667 10.2754 92.2666 10.5195C91.8662 10.7637 91.5391 11.1055 91.2852 11.5449C91.041 11.9844 90.8555 12.502 90.7285 13.0977C90.6113 13.6836 90.5527 14.3281 90.5527 15.0312V15.6172C90.5527 16.252 90.6406 16.8379 90.8164 17.375C91.002 17.9121 91.2607 18.376 91.5928 18.7666C91.9346 19.1572 92.3447 19.46 92.8232 19.6748C93.3115 19.8896 93.8633 19.9971 94.4785 19.9971C95.2402 19.9971 95.9482 19.8506 96.6025 19.5576C97.2666 19.2549 97.8379 18.8008 98.3164 18.1953L100.367 20.4219C100.035 20.9004 99.5811 21.3594 99.0049 21.7988C98.4385 22.2383 97.7549 22.5996 96.9541 22.8828C96.1533 23.1562 95.2402 23.293 94.2148 23.293ZM110.885 7.15039V10.1387H101.656V7.15039H110.885ZM103.941 3.23926H108.16V18.2246C108.16 18.6836 108.219 19.0352 108.336 19.2793C108.463 19.5234 108.648 19.6943 108.893 19.792C109.137 19.8799 109.444 19.9238 109.815 19.9238C110.079 19.9238 110.313 19.9141 110.519 19.8945C110.733 19.8652 110.914 19.8359 111.061 19.8066L111.075 22.9121C110.714 23.0293 110.323 23.1221 109.903 23.1904C109.483 23.2588 109.02 23.293 108.512 23.293C107.584 23.293 106.773 23.1416 106.08 22.8389C105.396 22.5264 104.869 22.0283 104.498 21.3447C104.127 20.6611 103.941 19.7627 103.941 18.6494V3.23926ZM121.842 19.4258V12.3652C121.842 11.8574 121.759 11.4229 121.593 11.0615C121.427 10.6904 121.168 10.4023 120.816 10.1973C120.475 9.99219 120.03 9.88965 119.483 9.88965C119.015 9.88965 118.609 9.97266 118.268 10.1387C117.926 10.2949 117.662 10.5244 117.477 10.8271C117.291 11.1201 117.198 11.4668 117.198 11.8672H112.979C112.979 11.1934 113.136 10.5537 113.448 9.94824C113.761 9.34277 114.215 8.81055 114.811 8.35156C115.406 7.88281 116.114 7.5166 116.935 7.25293C117.765 6.98926 118.692 6.85742 119.718 6.85742C120.948 6.85742 122.042 7.0625 122.999 7.47266C123.956 7.88281 124.708 8.49805 125.255 9.31836C125.812 10.1387 126.09 11.1641 126.09 12.3945V19.1768C126.09 20.0459 126.144 20.7588 126.251 21.3154C126.358 21.8623 126.515 22.3408 126.72 22.751V23H122.457C122.252 22.5703 122.096 22.0332 121.988 21.3887C121.891 20.7344 121.842 20.0801 121.842 19.4258ZM122.398 13.3467L122.428 15.7344H120.069C119.513 15.7344 119.029 15.7979 118.619 15.9248C118.209 16.0518 117.872 16.2324 117.608 16.4668C117.345 16.6914 117.149 16.9551 117.022 17.2578C116.905 17.5605 116.847 17.8926 116.847 18.2539C116.847 18.6152 116.93 18.9424 117.096 19.2354C117.262 19.5186 117.501 19.7432 117.813 19.9092C118.126 20.0654 118.492 20.1436 118.912 20.1436C119.547 20.1436 120.099 20.0166 120.567 19.7627C121.036 19.5088 121.397 19.1963 121.651 18.8252C121.915 18.4541 122.052 18.1025 122.062 17.7705L123.175 19.5576C123.019 19.958 122.804 20.373 122.53 20.8027C122.267 21.2324 121.93 21.6377 121.52 22.0186C121.109 22.3896 120.616 22.6973 120.04 22.9414C119.464 23.1758 118.78 23.293 117.989 23.293C116.983 23.293 116.07 23.0928 115.25 22.6924C114.439 22.2822 113.795 21.7207 113.316 21.0078C112.848 20.2852 112.613 19.4648 112.613 18.5469C112.613 17.7168 112.77 16.9795 113.082 16.335C113.395 15.6904 113.854 15.1484 114.459 14.709C115.074 14.2598 115.841 13.9229 116.759 13.6982C117.677 13.4639 118.741 13.3467 119.952 13.3467H122.398Z" fill="url(#paint0_linear_159_69)"/>
<defs>
<linearGradient id="paint0_linear_159_69" x1="-1" y1="12" x2="128" y2="12" gradientUnits="userSpaceOnUse">
<stop stop-color="#42B581"/>
<stop offset="1" stop-color="#42B581"/>
</linearGradient>
</defs>
</svg>
