<svg width="36" height="36" viewBox="0 0 36 36" fill="none" xmlns="http://www.w3.org/2000/svg">
<rect width="36" height="36" rx="8" fill="white"/>
<rect x="0.5" y="0.5" width="35" height="35" rx="7.5" stroke="black" stroke-opacity="0.6"/>
<path fill-rule="evenodd" clip-rule="evenodd" d="M12.958 15.3333H24.0413V24.4167C24.0413 25.5212 23.1459 26.4167 22.0413 26.4167H14.958C13.8534 26.4167 12.958 25.5212 12.958 24.4167V15.3333ZM16.9163 16.9583C17.3306 16.9583 17.6663 17.2941 17.6663 17.7083V22.4583C17.6663 22.8725 17.3306 23.2083 16.9163 23.2083C16.5021 23.2083 16.1663 22.8725 16.1663 22.4583V17.7083C16.1663 17.2941 16.5021 16.9583 16.9163 16.9583ZM20.833 17.7083C20.833 17.2941 20.4972 16.9583 20.083 16.9583C19.6688 16.9583 19.333 17.2941 19.333 17.7083V22.4583C19.333 22.8725 19.6688 23.2083 20.083 23.2083C20.4972 23.2083 20.833 22.8725 20.833 22.4583V17.7083Z" fill="#42B581"/>
<path d="M16.125 11.5833C16.125 11.031 16.5727 10.5833 17.125 10.5833H19.875C20.4273 10.5833 20.875 11.031 20.875 11.5833V12.1667H16.125V11.5833Z" fill="#42B581"/>
<path d="M11.375 13.75C11.375 13.3128 11.7294 12.9583 12.1667 12.9583H24.8333C25.2706 12.9583 25.625 13.3128 25.625 13.75C25.625 14.1872 25.2706 14.5417 24.8333 14.5417H12.1667C11.7294 14.5417 11.375 14.1872 11.375 13.75Z" fill="#42B581"/>
</svg>
