<svg width="129" height="35" viewBox="0 0 129 35" fill="none" xmlns="http://www.w3.org/2000/svg">
<path d="M13.0078 22.4189C13.0078 22.0381 12.9492 21.6963 12.832 21.3936C12.7246 21.0811 12.5195 20.7979 12.2168 20.5439C11.9141 20.2803 11.4893 20.0215 10.9424 19.7676C10.3955 19.5137 9.6875 19.25 8.81836 18.9766C7.85156 18.6641 6.93359 18.3125 6.06445 17.9219C5.20508 17.5312 4.44336 17.0771 3.7793 16.5596C3.125 16.0322 2.60742 15.4219 2.22656 14.7285C1.85547 14.0352 1.66992 13.2295 1.66992 12.3115C1.66992 11.4229 1.86523 10.6172 2.25586 9.89453C2.64648 9.16211 3.19336 8.53711 3.89648 8.01953C4.59961 7.49219 5.42969 7.08691 6.38672 6.80371C7.35352 6.52051 8.41309 6.37891 9.56543 6.37891C11.1377 6.37891 12.5098 6.66211 13.6816 7.22852C14.8535 7.79492 15.7617 8.57129 16.4062 9.55762C17.0605 10.5439 17.3877 11.6719 17.3877 12.9414H13.0225C13.0225 12.3164 12.8906 11.7695 12.627 11.3008C12.373 10.8223 11.9824 10.4463 11.4551 10.1729C10.9375 9.89941 10.2832 9.7627 9.49219 9.7627C8.73047 9.7627 8.0957 9.87988 7.58789 10.1143C7.08008 10.3389 6.69922 10.6465 6.44531 11.0371C6.19141 11.418 6.06445 11.8477 6.06445 12.3262C6.06445 12.6875 6.15234 13.0146 6.32812 13.3076C6.51367 13.6006 6.78711 13.874 7.14844 14.1279C7.50977 14.3818 7.9541 14.6211 8.48145 14.8457C9.00879 15.0703 9.61914 15.29 10.3125 15.5049C11.4746 15.8564 12.4951 16.252 13.374 16.6914C14.2627 17.1309 15.0049 17.624 15.6006 18.1709C16.1963 18.7178 16.6455 19.3379 16.9482 20.0312C17.251 20.7246 17.4023 21.5107 17.4023 22.3896C17.4023 23.3174 17.2217 24.1475 16.8604 24.8799C16.499 25.6123 15.9766 26.2324 15.293 26.7402C14.6094 27.248 13.7939 27.6338 12.8467 27.8975C11.8994 28.1611 10.8398 28.293 9.66797 28.293C8.61328 28.293 7.57324 28.1562 6.54785 27.8828C5.52246 27.5996 4.58984 27.1748 3.75 26.6084C2.91992 26.042 2.25586 25.3193 1.75781 24.4404C1.25977 23.5615 1.01074 22.5215 1.01074 21.3203H5.41992C5.41992 21.9844 5.52246 22.5459 5.72754 23.0049C5.93262 23.4639 6.2207 23.835 6.5918 24.1182C6.97266 24.4014 7.42188 24.6064 7.93945 24.7334C8.4668 24.8604 9.04297 24.9238 9.66797 24.9238C10.4297 24.9238 11.0547 24.8164 11.543 24.6016C12.041 24.3867 12.4072 24.0889 12.6416 23.708C12.8857 23.3271 13.0078 22.8975 13.0078 22.4189ZM29.502 24.2061V12.1504H33.7207V28H29.751L29.502 24.2061ZM29.9707 20.9541L31.2158 20.9248C31.2158 21.9795 31.0938 22.9609 30.8496 23.8691C30.6055 24.7676 30.2393 25.5488 29.751 26.2129C29.2627 26.8672 28.6475 27.3799 27.9053 27.751C27.1631 28.1123 26.2891 28.293 25.2832 28.293C24.5117 28.293 23.7988 28.1855 23.1445 27.9707C22.5 27.7461 21.9434 27.3994 21.4746 26.9307C21.0156 26.4521 20.6543 25.8418 20.3906 25.0996C20.1367 24.3477 20.0098 23.4443 20.0098 22.3896V12.1504H24.2285V22.4189C24.2285 22.8877 24.2822 23.2832 24.3896 23.6055C24.5068 23.9277 24.668 24.1914 24.873 24.3965C25.0781 24.6016 25.3174 24.748 25.5908 24.8359C25.874 24.9238 26.1865 24.9678 26.5283 24.9678C27.3975 24.9678 28.0811 24.792 28.5791 24.4404C29.0869 24.0889 29.4434 23.6104 29.6484 23.0049C29.8633 22.3896 29.9707 21.7061 29.9707 20.9541ZM45.498 24.4258V17.3652C45.498 16.8574 45.415 16.4229 45.249 16.0615C45.083 15.6904 44.8242 15.4023 44.4727 15.1973C44.1309 14.9922 43.6865 14.8896 43.1396 14.8896C42.6709 14.8896 42.2656 14.9727 41.9238 15.1387C41.582 15.2949 41.3184 15.5244 41.1328 15.8271C40.9473 16.1201 40.8545 16.4668 40.8545 16.8672H36.6357C36.6357 16.1934 36.792 15.5537 37.1045 14.9482C37.417 14.3428 37.8711 13.8105 38.4668 13.3516C39.0625 12.8828 39.7705 12.5166 40.5908 12.2529C41.4209 11.9893 42.3486 11.8574 43.374 11.8574C44.6045 11.8574 45.6982 12.0625 46.6553 12.4727C47.6123 12.8828 48.3643 13.498 48.9111 14.3184C49.4678 15.1387 49.7461 16.1641 49.7461 17.3945V24.1768C49.7461 25.0459 49.7998 25.7588 49.9072 26.3154C50.0146 26.8623 50.1709 27.3408 50.376 27.751V28H46.1133C45.9082 27.5703 45.752 27.0332 45.6445 26.3887C45.5469 25.7344 45.498 25.0801 45.498 24.4258ZM46.0547 18.3467L46.084 20.7344H43.7256C43.1689 20.7344 42.6855 20.7979 42.2754 20.9248C41.8652 21.0518 41.5283 21.2324 41.2646 21.4668C41.001 21.6914 40.8057 21.9551 40.6787 22.2578C40.5615 22.5605 40.5029 22.8926 40.5029 23.2539C40.5029 23.6152 40.5859 23.9424 40.752 24.2354C40.918 24.5186 41.1572 24.7432 41.4697 24.9092C41.7822 25.0654 42.1484 25.1436 42.5684 25.1436C43.2031 25.1436 43.7549 25.0166 44.2236 24.7627C44.6924 24.5088 45.0537 24.1963 45.3076 23.8252C45.5713 23.4541 45.708 23.1025 45.7178 22.7705L46.8311 24.5576C46.6748 24.958 46.46 25.373 46.1865 25.8027C45.9229 26.2324 45.5859 26.6377 45.1758 27.0186C44.7656 27.3896 44.2725 27.6973 43.6963 27.9414C43.1201 28.1758 42.4365 28.293 41.6455 28.293C40.6396 28.293 39.7266 28.0928 38.9062 27.6924C38.0957 27.2822 37.4512 26.7207 36.9727 26.0078C36.5039 25.2852 36.2695 24.4648 36.2695 23.5469C36.2695 22.7168 36.4258 21.9795 36.7383 21.335C37.0508 20.6904 37.5098 20.1484 38.1152 19.709C38.7305 19.2598 39.4971 18.9229 40.415 18.6982C41.333 18.4639 42.3975 18.3467 43.6084 18.3467H46.0547ZM67.2803 28H62.6367L62.666 24.5723H67.2803C68.4326 24.5723 69.4043 24.3135 70.1953 23.7959C70.9863 23.2686 71.582 22.502 71.9824 21.4961C72.3926 20.4902 72.5977 19.2744 72.5977 17.8486V16.8086C72.5977 15.7148 72.4805 14.7529 72.2461 13.9229C72.0215 13.0928 71.6846 12.3945 71.2354 11.8281C70.7861 11.2617 70.2344 10.8369 69.5801 10.5537C68.9258 10.2607 68.1738 10.1143 67.3242 10.1143H62.5488V6.67188H67.3242C68.75 6.67188 70.0537 6.91602 71.2354 7.4043C72.4268 7.88281 73.457 8.57129 74.3262 9.46973C75.1953 10.3682 75.8643 11.4424 76.333 12.6924C76.8115 13.9326 77.0508 15.3145 77.0508 16.8379V17.8486C77.0508 19.3623 76.8115 20.7441 76.333 21.9941C75.8643 23.2441 75.1953 24.3184 74.3262 25.2168C73.4668 26.1055 72.4365 26.7939 71.2354 27.2822C70.0439 27.7607 68.7256 28 67.2803 28ZM65.127 6.67188V28H60.7324V6.67188H65.127ZM84.4336 12.1504V28H80.2002V12.1504H84.4336ZM79.9365 8.01953C79.9365 7.4043 80.1514 6.89648 80.5811 6.49609C81.0107 6.0957 81.5869 5.89551 82.3096 5.89551C83.0225 5.89551 83.5938 6.0957 84.0234 6.49609C84.4629 6.89648 84.6826 7.4043 84.6826 8.01953C84.6826 8.63477 84.4629 9.14258 84.0234 9.54297C83.5938 9.94336 83.0225 10.1436 82.3096 10.1436C81.5869 10.1436 81.0107 9.94336 80.5811 9.54297C80.1514 9.14258 79.9365 8.63477 79.9365 8.01953ZM95.2148 28.293C93.9844 28.293 92.8809 28.0977 91.9043 27.707C90.9277 27.3066 90.0977 26.7549 89.4141 26.0518C88.7402 25.3486 88.2227 24.5332 87.8613 23.6055C87.5 22.668 87.3193 21.6719 87.3193 20.6172V20.0312C87.3193 18.8301 87.4902 17.7314 87.832 16.7354C88.1738 15.7393 88.6621 14.875 89.2969 14.1426C89.9414 13.4102 90.7227 12.8486 91.6406 12.458C92.5586 12.0576 93.5938 11.8574 94.7461 11.8574C95.8691 11.8574 96.8652 12.043 97.7344 12.4141C98.6035 12.7852 99.3311 13.3125 99.917 13.9961C100.513 14.6797 100.962 15.5 101.265 16.457C101.567 17.4043 101.719 18.459 101.719 19.6211V21.3789H89.1211V18.5664H97.5732V18.2441C97.5732 17.6582 97.4658 17.1357 97.251 16.6768C97.0459 16.208 96.7334 15.8369 96.3135 15.5635C95.8936 15.29 95.3564 15.1533 94.7021 15.1533C94.1455 15.1533 93.667 15.2754 93.2666 15.5195C92.8662 15.7637 92.5391 16.1055 92.2852 16.5449C92.041 16.9844 91.8555 17.502 91.7285 18.0977C91.6113 18.6836 91.5527 19.3281 91.5527 20.0312V20.6172C91.5527 21.252 91.6406 21.8379 91.8164 22.375C92.002 22.9121 92.2607 23.376 92.5928 23.7666C92.9346 24.1572 93.3447 24.46 93.8232 24.6748C94.3115 24.8896 94.8633 24.9971 95.4785 24.9971C96.2402 24.9971 96.9482 24.8506 97.6025 24.5576C98.2666 24.2549 98.8379 23.8008 99.3164 23.1953L101.367 25.4219C101.035 25.9004 100.581 26.3594 100.005 26.7988C99.4385 27.2383 98.7549 27.5996 97.9541 27.8828C97.1533 28.1562 96.2402 28.293 95.2148 28.293ZM111.885 12.1504V15.1387H102.656V12.1504H111.885ZM104.941 8.23926H109.16V23.2246C109.16 23.6836 109.219 24.0352 109.336 24.2793C109.463 24.5234 109.648 24.6943 109.893 24.792C110.137 24.8799 110.444 24.9238 110.815 24.9238C111.079 24.9238 111.313 24.9141 111.519 24.8945C111.733 24.8652 111.914 24.8359 112.061 24.8066L112.075 27.9121C111.714 28.0293 111.323 28.1221 110.903 28.1904C110.483 28.2588 110.02 28.293 109.512 28.293C108.584 28.293 107.773 28.1416 107.08 27.8389C106.396 27.5264 105.869 27.0283 105.498 26.3447C105.127 25.6611 104.941 24.7627 104.941 23.6494V8.23926ZM122.842 24.4258V17.3652C122.842 16.8574 122.759 16.4229 122.593 16.0615C122.427 15.6904 122.168 15.4023 121.816 15.1973C121.475 14.9922 121.03 14.8896 120.483 14.8896C120.015 14.8896 119.609 14.9727 119.268 15.1387C118.926 15.2949 118.662 15.5244 118.477 15.8271C118.291 16.1201 118.198 16.4668 118.198 16.8672H113.979C113.979 16.1934 114.136 15.5537 114.448 14.9482C114.761 14.3428 115.215 13.8105 115.811 13.3516C116.406 12.8828 117.114 12.5166 117.935 12.2529C118.765 11.9893 119.692 11.8574 120.718 11.8574C121.948 11.8574 123.042 12.0625 123.999 12.4727C124.956 12.8828 125.708 13.498 126.255 14.3184C126.812 15.1387 127.09 16.1641 127.09 17.3945V24.1768C127.09 25.0459 127.144 25.7588 127.251 26.3154C127.358 26.8623 127.515 27.3408 127.72 27.751V28H123.457C123.252 27.5703 123.096 27.0332 122.988 26.3887C122.891 25.7344 122.842 25.0801 122.842 24.4258ZM123.398 18.3467L123.428 20.7344H121.069C120.513 20.7344 120.029 20.7979 119.619 20.9248C119.209 21.0518 118.872 21.2324 118.608 21.4668C118.345 21.6914 118.149 21.9551 118.022 22.2578C117.905 22.5605 117.847 22.8926 117.847 23.2539C117.847 23.6152 117.93 23.9424 118.096 24.2354C118.262 24.5186 118.501 24.7432 118.813 24.9092C119.126 25.0654 119.492 25.1436 119.912 25.1436C120.547 25.1436 121.099 25.0166 121.567 24.7627C122.036 24.5088 122.397 24.1963 122.651 23.8252C122.915 23.4541 123.052 23.1025 123.062 22.7705L124.175 24.5576C124.019 24.958 123.804 25.373 123.53 25.8027C123.267 26.2324 122.93 26.6377 122.52 27.0186C122.109 27.3896 121.616 27.6973 121.04 27.9414C120.464 28.1758 119.78 28.293 118.989 28.293C117.983 28.293 117.07 28.0928 116.25 27.6924C115.439 27.2822 114.795 26.7207 114.316 26.0078C113.848 25.2852 113.613 24.4648 113.613 23.5469C113.613 22.7168 113.77 21.9795 114.082 21.335C114.395 20.6904 114.854 20.1484 115.459 19.709C116.074 19.2598 116.841 18.9229 117.759 18.6982C118.677 18.4639 119.741 18.3467 120.952 18.3467H123.398Z" fill="url(#paint0_linear_64_33)"/>
<defs>
<linearGradient id="paint0_linear_64_33" x1="0" y1="17" x2="129" y2="17" gradientUnits="userSpaceOnUse">
<stop stop-color="#29CC7A"/>
<stop offset="1" stop-color="#42B581"/>
</linearGradient>
</defs>
</svg>
